<?xml version="1.0" encoding="iso-8859-1"?>
<!-- Generator: Adobe Illustrator 18.0.0, SVG Export Plug-In . SVG Version: 6.00 Build 0)  -->
<!DOCTYPE svg PUBLIC "-//W3C//DTD SVG 1.1//EN" "http://www.w3.org/Graphics/SVG/1.1/DTD/svg11.dtd">
<svg version="1.1" id="_x30_" xmlns="http://www.w3.org/2000/svg" xmlns:xlink="http://www.w3.org/1999/xlink" x="0px" y="0px"
	 viewBox="0 0 512 512" style="enable-background:new 0 0 512 512;" xml:space="preserve">
<g>
	<rect style="opacity:0;fill:#FFFFFF;" width="512" height="512"/>
	<path style="opacity:0.3;fill:#040000;" d="M512,195.789V512H187.392l-98.56-98.56c8.243-18.176,18.739-58.215,18.739-58.215
		s17.306,0,30.874-8.089c2.202-1.28,4.249-2.765,6.144-4.506c-4.608-4.813-4.506-12.441,0.205-17.203l92.774-92.724l5.171-5.223
		l-4.557-4.556l101.12-101.12l-3.84-3.84l-45.568,45.568c-1.485,1.536-3.942,1.536-5.427,0c-1.485-1.485-1.485-3.891,0-5.375
		l62.976-62.976c1.485-1.536,3.942-1.536,5.427,0c1.485,1.484,1.485,3.891,0,5.376l-3.994,4.044l3.84,3.84l12.954-13.004
		c10.086-10.088,24.576-13.005,37.222-8.756l11.111,11.111l11.981,11.98L512,195.789z"/>
	<g>
		<path style="fill:#F5F2D8;" d="M169.728,365.875c-0.358,0.359-0.666,0.666-0.921,1.025c-1.792,1.894-3.277,3.941-4.557,6.041
			c-7.987,13.414-8.038,30.464-8.038,30.874c0,0-39.987,10.445-58.214,18.79c-3.686,1.69-6.451,3.276-7.885,4.659l6.298-6.246
			l24.423-24.474c2.15,0.307,4.352-0.359,6.041-1.996c1.433-1.434,2.099-3.38,1.997-5.274c0.051-0.359,0-0.716-0.102-1.075
			c0-0.051,0-0.051,0-0.051c-0.154-0.82-0.461-1.587-0.973-2.305c-0.205-0.409-0.461-0.767-0.768-1.125
			c-0.051-0.052-0.102-0.103-0.154-0.155c-2.765-2.764-7.27-2.764-10.035,0c-1.638,1.639-2.304,3.892-1.996,6.043l-30.669,30.669
			c1.382-1.383,2.97-4.147,4.659-7.834c8.243-18.176,18.739-58.215,18.739-58.215s17.306,0,30.874-8.089
			c2.202-1.28,4.249-2.765,6.144-4.506c0.307-0.307,0.665-0.614,0.973-0.921c2.253,2.253,12.083,12.084,12.083,12.084
			s0.051,0.05,0.153,0.152C159.027,355.175,167.578,363.725,169.728,365.875z"/>
		<path style="opacity:0.2;fill:#040000;" d="M169.728,365.875c-0.358,0.359-0.666,0.666-0.921,1.025
			c-1.792,1.894-3.277,3.941-4.557,6.041l-12.697-12.699l-13.107-13.106c2.202-1.28,4.249-2.765,6.144-4.506
			c0.307-0.307,0.665-0.614,0.973-0.921c2.253,2.253,12.083,12.084,12.083,12.084s0.051,0.05,0.153,0.152
			C159.027,355.175,167.578,363.725,169.728,365.875z"/>
		<path style="fill:#526574;" d="M330.291,224.615l-43.418,43.417l-1.792,1.791l-97.946,97.946c-4.813,4.813-12.646,4.813-17.459,0
			l-24.883-24.884c-0.103-0.102-0.154-0.154-0.205-0.256c-4.608-4.813-4.506-12.441,0.205-17.203l92.774-92.724l5.171-5.223h0.051
			l45.159-45.159l20.736,20.738L330.291,224.615z"/>
		
			<rect x="257.264" y="220.455" transform="matrix(0.7071 -0.7071 0.7071 0.7071 -100.249 258.7388)" style="opacity:0.2;fill:#040000;" width="9.872" height="59.852"/>
		<path style="fill:#526574;" d="M427.827,121.19c0,9.319-3.584,18.637-10.701,25.702l-12.954,13.005l-13.414,13.364L289.69,274.381
			l-4.608-4.557l-21.555-21.606l-20.736-20.736h-0.051l-4.557-4.556l101.12-101.12l13.414-13.364l12.954-13.004
			c10.086-10.088,24.576-13.005,37.222-8.756c5.069,1.639,9.779,4.404,13.824,8.346c0.154,0.154,0.307,0.255,0.41,0.41
			c4.147,4.146,7.117,9.063,8.858,14.335C427.213,113.46,427.827,117.35,427.827,121.19z"/>
		<polygon style="fill:#EF8D8C;" points="404.173,159.898 390.758,173.261 364.647,147.149 335.462,117.965 334.746,117.247 
			348.109,103.834 		"/>
		<path style="opacity:0.4;fill:#040000;" d="M427.811,121.175c0.005-9.315-3.556-18.635-10.663-25.742
			c-0.14-0.14-0.294-0.256-0.435-0.393L127,384.754c2.592,2.772,2.549,7.106-0.151,9.806c-1.645,1.645-3.892,2.313-6.021,1.999
			l-30.703,30.703c8.334-8.334,66.092-23.43,66.092-23.43s-0.044-17.304,8.054-30.873c1.286-2.152,2.789-4.199,4.516-6.08
			l0.892,0.892c4.821,4.821,12.635,4.817,17.452,0l92.739-92.739l5.223-5.223l4.581,4.581l101.107-101.107l13.377-13.377
			l12.989-12.989C424.256,139.81,427.811,130.495,427.811,121.175z"/>
		<path style="fill:#EF8D8C;" d="M352.871,100.558l-3.994,4.044l-13.414,13.364l-45.568,45.568c-1.485,1.536-3.942,1.536-5.427,0
			c-1.485-1.485-1.485-3.891,0-5.375l62.976-62.976c1.485-1.536,3.942-1.536,5.427,0C354.355,96.665,354.355,99.073,352.871,100.558
			z"/>
	</g>
</g>
</svg>
