<?xml version="1.0" standalone="no"?>
<!DOCTYPE svg PUBLIC "-//W3C//DTD SVG 20010904//EN"
 "http://www.w3.org/TR/2001/REC-SVG-20010904/DTD/svg10.dtd">
<svg version="1.0" xmlns="http://www.w3.org/2000/svg"
 width="1020.000000pt" height="1020.000000pt" viewBox="0 0 1020.000000 1020.000000"
 preserveAspectRatio="xMidYMid meet">
<metadata>
Created by potrace 1.11, written by Peter Selinger 2001-2013
</metadata>
<g transform="translate(0.000000,1020.000000) scale(0.100000,-0.100000)"
fill="#000000" stroke="none">
<path d="M1672 9515 c-89 -41 -136 -112 -177 -268 -21 -78 -79 -355 -142 -674
l-17 -83 -235 -1 c-255 -1 -272 -2 -343 -25 -240 -78 -262 -421 -33 -529 76
-36 139 -45 321 -45 90 0 164 -4 164 -8 0 -11 -16 -96 -45 -242 -8 -41 -17
-86 -19 -100 -3 -14 -16 -83 -30 -155 -14 -71 -27 -141 -30 -155 -3 -14 -9
-49 -15 -79 -6 -29 -11 -55 -11 -57 0 -2 -46 -4 -103 -4 -212 0 -322 -60 -374
-203 -24 -68 -24 -161 0 -220 45 -107 167 -172 328 -176 26 -1 27 -3 18 -38
-4 -21 -11 -54 -14 -73 -3 -19 -24 -125 -46 -234 -22 -109 -43 -217 -45 -239
-3 -23 -7 -44 -9 -48 -6 -8 -18 -103 -19 -149 -3 -85 37 -172 102 -223 101
-78 321 -73 393 9 51 58 119 284 165 544 2 14 9 48 15 75 6 28 13 61 15 75 2
14 9 45 14 70 6 25 13 56 15 70 9 51 17 86 26 123 l10 37 294 0 c274 0 295 -1
295 -17 -1 -10 -29 -160 -64 -333 -57 -282 -64 -326 -62 -425 1 -101 3 -113
28 -151 60 -92 151 -137 272 -133 106 3 192 55 236 140 15 29 41 114 55 179 9
44 35 168 39 190 3 14 16 81 31 150 14 69 27 134 30 145 2 11 11 56 20 100 9
44 18 91 21 105 2 14 6 30 9 37 3 8 78 13 272 15 318 5 346 11 428 93 62 61
85 122 80 216 -5 122 -71 216 -181 260 -54 21 -78 23 -270 27 l-211 4 19 91
c10 50 20 100 22 112 2 11 13 65 25 120 11 55 22 111 25 125 2 14 16 81 30
150 15 69 29 138 32 154 3 16 7 32 9 36 3 4 62 10 132 13 156 6 216 24 283 84
57 51 81 106 86 193 8 179 -103 285 -320 306 -34 3 -62 7 -63 8 -1 0 7 44 18
96 11 52 22 109 25 125 3 17 7 35 8 40 2 6 6 28 10 50 9 47 46 231 53 260 11
51 17 118 17 205 1 81 -3 102 -23 140 -48 90 -122 131 -247 136 -106 5 -163
-14 -220 -73 -24 -24 -51 -66 -62 -96 -15 -39 -125 -533 -158 -704 -2 -13 -6
-33 -8 -45 -3 -13 -10 -47 -16 -75 l-12 -53 -295 0 -295 0 7 40 c9 52 9 54 23
120 6 30 13 66 16 80 2 14 11 59 19 100 9 41 19 91 22 110 3 19 15 80 26 135
43 220 34 305 -38 379 -56 58 -112 80 -213 83 -73 2 -93 -1 -138 -22z m748
-1632 c0 -5 -14 -78 -31 -163 -34 -174 -34 -170 -44 -225 -14 -79 -17 -91 -36
-188 -10 -53 -21 -112 -25 -130 -3 -17 -7 -39 -9 -47 -2 -8 -4 -21 -4 -27 -1
-10 -69 -13 -304 -13 l-304 0 29 138 c15 75 31 153 34 172 3 19 7 43 10 52 3
9 7 27 9 40 3 13 21 107 41 211 l37 187 298 0 c165 0 299 -3 299 -7z"/>
<path d="M4850 6236 c-139 -38 -242 -140 -285 -282 -16 -55 -17 -171 -1 -232
63 -236 337 -359 568 -254 155 70 238 209 233 387 -5 145 -76 263 -205 342
-81 49 -213 66 -310 39z"/>
<path d="M7066 6233 c-105 -31 -197 -113 -250 -223 -28 -60 -31 -73 -30 -170
0 -116 16 -178 63 -240 88 -118 224 -179 376 -167 125 10 222 63 296 161 89
117 99 326 21 451 -102 166 -293 241 -476 188z"/>
<path d="M9293 6229 c-106 -36 -188 -113 -240 -225 -25 -53 -28 -70 -27 -169
0 -102 2 -115 31 -175 32 -68 82 -126 145 -166 112 -72 281 -83 401 -26 176
82 260 254 225 457 -25 141 -149 272 -293 310 -75 20 -174 17 -242 -6z"/>
<path d="M4838 4740 c-90 -28 -172 -96 -216 -180 -22 -41 -39 -132 -36 -185 9
-137 19 -181 155 -730 61 -242 112 -447 114 -455 8 -37 92 -378 151 -616 35
-143 66 -269 69 -280 2 -10 42 -172 89 -359 46 -187 101 -405 120 -485 100
-404 130 -497 195 -598 64 -97 147 -160 253 -188 99 -26 275 -11 365 32 46 21
146 116 182 173 41 64 118 291 188 556 3 11 71 259 150 550 128 468 206 758
218 805 2 8 20 74 40 145 32 116 125 457 190 699 13 49 26 90 28 92 2 2 29
-94 61 -214 32 -119 62 -230 67 -247 9 -29 137 -504 145 -535 2 -8 19 -73 39
-145 41 -154 79 -293 135 -505 22 -85 53 -195 67 -245 14 -49 29 -106 33 -125
18 -80 152 -553 186 -655 46 -138 75 -191 147 -264 92 -93 186 -129 337 -129
150 0 247 37 333 127 30 31 65 76 80 101 32 56 87 221 123 370 2 8 51 206 109
440 112 445 112 448 120 481 2 11 7 29 10 39 3 10 7 27 10 37 4 20 83 344 266
1083 66 267 122 493 124 503 2 10 7 27 10 37 3 10 8 28 10 41 2 12 13 56 24
98 10 42 25 103 31 136 7 33 13 65 15 70 50 235 2 391 -150 488 -113 72 -305
74 -410 4 -42 -28 -90 -84 -119 -137 -25 -45 -72 -194 -82 -260 -3 -19 -8 -38
-10 -42 -2 -3 -13 -48 -24 -100 -11 -51 -35 -163 -55 -248 -19 -85 -38 -168
-41 -185 -2 -16 -10 -48 -16 -70 -5 -22 -12 -50 -14 -63 -3 -13 -18 -80 -34
-150 -16 -70 -31 -138 -34 -152 -2 -14 -28 -126 -56 -250 -28 -124 -53 -234
-55 -245 -3 -11 -7 -31 -10 -45 -3 -14 -7 -34 -9 -45 -3 -11 -14 -58 -25 -105
-11 -47 -22 -96 -25 -110 -4 -25 -18 -84 -56 -255 -11 -49 -22 -99 -24 -110
-7 -35 -37 -159 -48 -200 l-11 -40 -7 30 c-4 17 -19 73 -33 125 -14 52 -35
131 -47 175 -12 44 -24 87 -26 95 -2 8 -28 105 -58 215 -29 110 -63 235 -75
278 -12 42 -30 112 -42 155 -11 42 -35 131 -53 197 -18 66 -54 197 -79 290
-25 94 -81 296 -123 450 -42 154 -77 285 -78 290 -1 6 -21 69 -44 140 -50 156
-92 231 -170 303 -95 89 -155 112 -307 117 -185 7 -293 -30 -400 -140 -92 -94
-133 -190 -225 -525 -11 -41 -25 -91 -30 -110 -6 -19 -44 -161 -84 -315 -41
-154 -99 -370 -129 -480 -30 -110 -71 -263 -92 -340 -20 -77 -82 -306 -137
-510 -120 -449 -109 -407 -110 -422 -1 -13 -12 -8 -14 5 0 4 -3 18 -7 32 -3
14 -15 68 -27 120 -20 90 -54 240 -85 375 -8 33 -16 74 -19 90 -3 17 -33 149
-66 295 -34 146 -68 297 -76 335 -9 39 -17 77 -19 85 -11 49 -48 219 -52 239
-2 14 -6 28 -8 31 -2 4 -6 20 -9 36 -5 24 -72 326 -142 639 -52 232 -115 407
-167 466 -77 89 -247 123 -389 79z"/>
<path d="M879 4686 c-2 -2 -22 -7 -44 -10 -56 -9 -139 -53 -180 -94 -62 -64
-79 -113 -80 -227 0 -84 4 -107 23 -146 45 -93 134 -157 248 -178 27 -6 262
-10 523 -11 261 0 477 -2 479 -5 3 -3 6 -679 7 -1502 1 -1568 0 -1534 45
-1639 63 -147 213 -233 385 -221 187 13 314 127 356 322 10 47 13 374 13 1547
1 817 4 1489 7 1492 3 3 221 6 485 7 436 0 486 2 552 19 76 20 118 44 165 93
70 73 98 191 72 302 -15 64 -34 101 -77 146 -42 45 -84 67 -168 90 -61 17
-150 18 -1436 19 -754 0 -1373 -2 -1375 -4z"/>
</g>
</svg>
